<?xml version="1.0" encoding="utf-8"?>
<svg version="1.1" xmlns:xlink="http://www.w3.org/1999/xlink" width="10px" height="17px" xmlns="http://www.w3.org/2000/svg">
  <g transform="matrix(1 0 0 1 -12 -83 )">
    <path d="M 9.671875 16.734375  C 9.5234375 16.8720170454545  9.32552083333333 16.9420454545455  9.13020833333333 16.9420454545455  C 8.93229166666667 16.9420454545455  8.73697916666667 16.8720170454545  8.5859375 16.734375  L 0.244791666666666 8.99985795454545  C -0.0572916666666679 8.72215909090909  -0.0572916666666679 8.26818181818182  0.244791666666666 7.99048295454546  L 8.58333333333333 0.258380681818183  C 8.734375 0.118323863636364  8.9296875 0.0507102272727285  9.12760416666666 0.0507102272727285  C 9.32291666666666 0.0507102272727285  9.52083333333333 0.120738636363638  9.671875 0.258380681818183  C 9.97135416666666 0.536079545454547  9.97135416666666 0.987642045454546  9.671875 1.26775568181818  L 1.875 8.49517045454546  L 9.671875 15.725  C 9.97135416666667 16.0051136363636  9.97135416666667 16.4566761363636  9.671875 16.734375  Z " fill-rule="nonzero" fill="#ffffff" stroke="none" transform="matrix(1 0 0 1 12 83 )" />
  </g>
</svg>