<?xml version="1.0" encoding="utf-8"?>
<svg version="1.1" xmlns:xlink="http://www.w3.org/1999/xlink" width="19px" height="14px" xmlns="http://www.w3.org/2000/svg">
  <g transform="matrix(1 0 0 1 -318 -84 )">
    <path d="M 7.5026510989011 13.8488680555556  C 7.20603708791209 13.8488680555556  6.91981043956044 13.7424583333333  6.70431181318681 13.55025  L 0.558151098901099 8.06849652777778  C 0.0977664835164845 7.65787847222223  0.0819766483516489 6.97739583333334  0.522917582417583 6.54871875  C 0.963832417582419 6.11996875  1.69452335164835 6.10526388888889  2.15493406593407 6.51588194444445  L 7.40224862637363 11.1959652777778  L 16.9203090659341 0.42444791666667  C 17.3253379120879 -0.0339548611111081  18.0527403846154 -0.0997499999999969  18.545043956044 0.277423611111114  C 19.0372953296703 0.654621527777781  19.1079450549451 1.33204166666667  18.7028901098901 1.79046875  L 8.39403296703297 13.4569652777778  C 8.18991346153846 13.6879652777778  7.89168131868132 13.8293020833333  7.57103021978022 13.8469965277778  C 7.54821978021978 13.8482604166667  7.52540934065934 13.8488923611111  7.502625 13.8488923611111  Z " fill-rule="nonzero" fill="#ffffff" stroke="none" transform="matrix(1 0 0 1 318 84 )" />
  </g>
</svg>